<svg width="20" height="20" viewBox="0 0 20 20" fill="none" xmlns="http://www.w3.org/2000/svg">
<rect y="3" width="20" height="14" rx="2" fill="white"/>
<mask id="mask0_2221_3676" style="mask-type:luminance" maskUnits="userSpaceOnUse" x="0" y="3" width="20" height="14">
<rect y="3" width="20" height="14" rx="2" fill="white"/>
</mask>
<g mask="url(#mask0_2221_3676)">
<rect y="3" width="20" height="14" fill="#0A17A7"/>
<path fill-rule="evenodd" clip-rule="evenodd" d="M-0.916072 1.65851L7.61903 7.30036V2.06671H12.3809V7.30038L20.916 1.65852L21.9812 3.20606L15.233 7.66671H20V12.3334H15.2331L21.9812 16.794L20.916 18.3415L12.3809 12.6997V17.9334H7.61903V12.6997L-0.916065 18.3415L-1.98119 16.794L4.76692 12.3334H-2.30074e-05V7.66671H4.76697L-1.9812 3.20605L-0.916072 1.65851Z" fill="white"/>
<path d="M13.3342 7.43254L22.3809 1.60001" stroke="#DB1F35" stroke-width="0.666667" stroke-linecap="round"/>
<path d="M14.2949 12.5883L22.4048 17.9453" stroke="#DB1F35" stroke-width="0.666667" stroke-linecap="round"/>
<path d="M5.71821 7.4173L-2.74109 1.83029" stroke="#DB1F35" stroke-width="0.666667" stroke-linecap="round"/>
<path d="M6.63571 12.5234L-2.74109 18.6173" stroke="#DB1F35" stroke-width="0.666667" stroke-linecap="round"/>
<path fill-rule="evenodd" clip-rule="evenodd" d="M0 11.4H8.57143V17H11.4286V11.4H20V8.6H11.4286V3H8.57143V8.6H0V11.4Z" fill="#E6273E"/>
</g>
</svg>
